<svg width="200" height="300" viewBox="0 0 200 300" fill="none" xmlns="http://www.w3.org/2000/svg">
<rect width="200" height="300" fill="black"/>
<path d="M75.56 143.436C75.56 144.02 75.376 144.484 75.008 144.828C74.64 145.164 74.148 145.38 73.532 145.476V145.524C74.252 145.62 74.8 145.844 75.176 146.196C75.552 146.548 75.74 147.008 75.74 147.576C75.74 148.328 75.452 148.94 74.876 149.412C74.3 149.884 73.436 150.12 72.284 150.12C71.82 150.12 71.376 150.084 70.952 150.012C70.536 149.948 70.148 149.828 69.788 149.652V148.668C70.164 148.844 70.572 148.984 71.012 149.088C71.46 149.184 71.88 149.232 72.272 149.232C73.04 149.232 73.62 149.088 74.012 148.8C74.412 148.512 74.612 148.104 74.612 147.576C74.612 147.032 74.38 146.636 73.916 146.388C73.452 146.14 72.804 146.016 71.972 146.016H70.748V145.116H71.912C72.76 145.116 73.392 144.976 73.808 144.696C74.232 144.408 74.444 144.024 74.444 143.544C74.444 143.112 74.284 142.78 73.964 142.548C73.644 142.316 73.228 142.2 72.716 142.2C72.18 142.2 71.732 142.268 71.372 142.404C71.02 142.54 70.676 142.716 70.34 142.932L69.824 142.2C70.16 141.952 70.572 141.744 71.06 141.576C71.556 141.4 72.112 141.312 72.728 141.312C73.656 141.312 74.36 141.512 74.84 141.912C75.32 142.312 75.56 142.82 75.56 143.436ZM79.8427 143.46C80.6267 143.46 81.2067 143.632 81.5827 143.976C81.9587 144.32 82.1467 144.868 82.1467 145.62V150H81.3787L81.1747 149.088H81.1267C80.8467 149.44 80.5507 149.7 80.2387 149.868C79.9347 150.036 79.5107 150.12 78.9667 150.12C78.3827 150.12 77.8987 149.968 77.5147 149.664C77.1307 149.352 76.9387 148.868 76.9387 148.212C76.9387 147.572 77.1907 147.08 77.6947 146.736C78.1987 146.384 78.9747 146.192 80.0227 146.16L81.1147 146.124V145.74C81.1147 145.204 80.9987 144.832 80.7667 144.624C80.5347 144.416 80.2067 144.312 79.7827 144.312C79.4467 144.312 79.1267 144.364 78.8227 144.468C78.5187 144.564 78.2347 144.676 77.9707 144.804L77.6467 144.012C77.9267 143.86 78.2587 143.732 78.6427 143.628C79.0267 143.516 79.4267 143.46 79.8427 143.46ZM80.1547 146.892C79.3547 146.924 78.7987 147.052 78.4867 147.276C78.1827 147.5 78.0307 147.816 78.0307 148.224C78.0307 148.584 78.1387 148.848 78.3547 149.016C78.5787 149.184 78.8627 149.268 79.2067 149.268C79.7507 149.268 80.2027 149.12 80.5627 148.824C80.9227 148.52 81.1027 148.056 81.1027 147.432V146.856L80.1547 146.892ZM88.0573 143.568V144.456H85.1893V150H84.1333V143.568H88.0573ZM92.3847 143.448C93.1767 143.448 93.8127 143.724 94.2927 144.276C94.7807 144.828 95.0247 145.66 95.0247 146.772C95.0247 147.868 94.7807 148.7 94.2927 149.268C93.8127 149.836 93.1727 150.12 92.3727 150.12C91.8767 150.12 91.4647 150.028 91.1367 149.844C90.8167 149.652 90.5647 149.432 90.3807 149.184H90.3087C90.3247 149.32 90.3407 149.492 90.3567 149.7C90.3727 149.908 90.3807 150.088 90.3807 150.24V152.88H89.3247V143.568H90.1887L90.3327 144.444H90.3807C90.5727 144.164 90.8247 143.928 91.1367 143.736C91.4487 143.544 91.8647 143.448 92.3847 143.448ZM92.1927 144.336C91.5367 144.336 91.0727 144.52 90.8007 144.888C90.5367 145.256 90.3967 145.816 90.3807 146.568V146.772C90.3807 147.564 90.5087 148.176 90.7647 148.608C91.0287 149.032 91.5127 149.244 92.2167 149.244C92.6087 149.244 92.9287 149.136 93.1767 148.92C93.4327 148.704 93.6207 148.412 93.7407 148.044C93.8687 147.668 93.9327 147.24 93.9327 146.76C93.9327 146.024 93.7887 145.436 93.5007 144.996C93.2207 144.556 92.7847 144.336 92.1927 144.336ZM95.5823 143.568H96.7103L98.1023 147.228C98.2223 147.548 98.3303 147.856 98.4263 148.152C98.5223 148.44 98.5943 148.716 98.6423 148.98H98.6903C98.7383 148.78 98.8143 148.52 98.9183 148.2C99.0223 147.872 99.1303 147.544 99.2423 147.216L100.55 143.568H101.69L98.9183 150.888C98.6943 151.496 98.4023 151.98 98.0423 152.34C97.6903 152.7 97.2023 152.88 96.5783 152.88C96.3863 152.88 96.2183 152.868 96.0743 152.844C95.9303 152.828 95.8063 152.808 95.7023 152.784V151.944C95.7903 151.96 95.8943 151.976 96.0143 151.992C96.1423 152.008 96.2743 152.016 96.4103 152.016C96.7783 152.016 97.0743 151.912 97.2983 151.704C97.5303 151.496 97.7103 151.22 97.8383 150.876L98.1743 150.024L95.5823 143.568ZM104.4 143.448C105.136 143.448 105.72 143.596 106.152 143.892C106.592 144.18 106.812 144.596 106.812 145.14C106.812 145.532 106.704 145.844 106.488 146.076C106.272 146.3 105.976 146.464 105.6 146.568V146.616C105.856 146.688 106.092 146.788 106.308 146.916C106.524 147.044 106.696 147.212 106.824 147.42C106.96 147.628 107.028 147.896 107.028 148.224C107.028 148.76 106.804 149.212 106.356 149.58C105.916 149.94 105.224 150.12 104.28 150.12C103.816 150.12 103.396 150.08 103.02 150C102.644 149.928 102.332 149.828 102.083 149.7V148.752C102.356 148.88 102.676 148.996 103.044 149.1C103.42 149.204 103.828 149.256 104.268 149.256C104.748 149.256 105.152 149.176 105.48 149.016C105.816 148.848 105.984 148.564 105.984 148.164C105.984 147.444 105.372 147.084 104.148 147.084H103.284V146.22H103.98C104.532 146.22 104.972 146.148 105.3 146.004C105.636 145.852 105.804 145.596 105.804 145.236C105.804 144.932 105.676 144.704 105.42 144.552C105.172 144.4 104.812 144.324 104.34 144.324C103.988 144.324 103.676 144.36 103.404 144.432C103.14 144.496 102.848 144.596 102.528 144.732L102.156 143.892C102.828 143.596 103.576 143.448 104.4 143.448ZM112.394 143.568H113.546L110.798 146.664L113.774 150H112.55L109.646 146.736V150H108.59V143.568H109.646V146.688L112.394 143.568ZM117.378 143.46C118.162 143.46 118.742 143.632 119.118 143.976C119.494 144.32 119.682 144.868 119.682 145.62V150H118.914L118.71 149.088H118.662C118.382 149.44 118.086 149.7 117.774 149.868C117.47 150.036 117.046 150.12 116.502 150.12C115.918 150.12 115.434 149.968 115.05 149.664C114.666 149.352 114.474 148.868 114.474 148.212C114.474 147.572 114.726 147.08 115.23 146.736C115.734 146.384 116.51 146.192 117.558 146.16L118.65 146.124V145.74C118.65 145.204 118.534 144.832 118.302 144.624C118.07 144.416 117.742 144.312 117.318 144.312C116.982 144.312 116.662 144.364 116.358 144.468C116.054 144.564 115.77 144.676 115.506 144.804L115.182 144.012C115.462 143.86 115.794 143.732 116.178 143.628C116.562 143.516 116.962 143.46 117.378 143.46ZM117.69 146.892C116.89 146.924 116.334 147.052 116.022 147.276C115.718 147.5 115.566 147.816 115.566 148.224C115.566 148.584 115.674 148.848 115.89 149.016C116.114 149.184 116.398 149.268 116.742 149.268C117.286 149.268 117.738 149.12 118.098 148.824C118.458 148.52 118.638 148.056 118.638 147.432V146.856L117.69 146.892ZM121.644 150V148.656H122.988V150H121.644ZM124.984 150V148.656H126.328V150H124.984ZM128.324 150V148.656H129.668V150H128.324Z" fill="white"/>
</svg>
