<svg width="51" height="51" viewBox="0 0 51 51" fill="none" xmlns="http://www.w3.org/2000/svg">
<path d="M19.707 26.5664L27.8281 30.8203V45.6211C25.8594 45.8086 24.0781 46.2891 22.4844 47.0625C20.8906 47.8359 19.0859 49.1484 17.0703 51C15.3359 49.9688 13.8242 49.2539 12.5352 48.8555C11.2695 48.457 9.92188 48.2578 8.49219 48.2578C6.28906 48.2578 4.33203 48.9258 2.62109 50.2617C1.98828 50.7539 1.53125 51 1.25 51C0.992188 51 0.734375 50.8711 0.476562 50.6133C0.21875 50.3555 0.0898438 50.0977 0.0898438 49.8398C0.0898438 49.5586 0.335938 49.1836 0.828125 48.7148C1.10938 48.4336 1.58984 47.8945 2.26953 47.0977L5.46875 43.125L10.0039 37.1133L2.30469 32.9648V19.8516C4.71875 19.1016 6.60547 18.2695 7.96484 17.3555C9.34766 16.418 10.6719 15.1406 11.9375 13.5234C14.9375 14.7891 17.3516 15.6797 19.1797 16.1953C20.4922 16.5469 21.7461 16.7227 22.9414 16.7227C24.2539 16.7227 25.2734 16.4414 26 15.8789C26.7266 15.293 27.0898 14.6836 27.0898 14.0508C27.0898 13.6289 26.8555 13.207 26.3867 12.7852C25.4727 11.9648 25.0156 11.168 25.0156 10.3945C25.0156 9.66797 25.2148 9.09375 25.6133 8.67188C26.0117 8.22656 26.457 8.00391 26.9492 8.00391C27.6055 8.00391 28.1914 8.30859 28.707 8.91797C29.2461 9.50391 29.5156 10.2891 29.5156 11.2734C29.5156 12.2813 29.3047 13.2656 28.8828 14.2266C28.4609 15.1875 27.6523 16.4297 26.457 17.9531L19.707 26.5664ZM9.40625 28.9922L14.2227 31.4883L21.8867 21.293C20.3164 21.7383 18.957 21.9609 17.8086 21.9609C14.9258 21.9609 12.125 21 9.40625 19.0781V28.9922ZM15.4531 32.1914L6.98047 43.5469C8.01172 43.1953 8.97266 42.9375 9.86328 42.7734C10.7539 42.6094 11.5625 42.5273 12.2891 42.5273C14.9844 42.5273 17.7852 43.418 20.6914 45.1992V35.0039L15.4531 32.1914ZM50.6797 2.30859L49.5898 8.17969L43.1562 6.66797V15.1406H48.6055V19.0781H43.1562V42.668L47.1289 45.6562L49.8711 43.4414L50.6797 44.4258L42.5234 51C39.6406 48.375 36.6758 46.5938 33.6289 45.6562L33.418 44.8125C34.2617 44.2734 34.8477 43.7109 35.1758 43.125C35.7383 42.1641 36.0195 41.0039 36.0195 39.6445V19.0781H32.7148V15.1406H36.0195V6.66797C39.5352 4.27734 42.1836 2.26172 43.9648 0.621094L50.6797 2.30859Z" fill="white"/>
</svg>
