<svg width="21" height="20" viewBox="0 0 21 20" fill="none" xmlns="http://www.w3.org/2000/svg">
<path d="M8.05273 10.498L11.2109 12.1523V17.9082C10.4453 17.9811 9.7526 18.168 9.13281 18.4688C8.51302 18.7695 7.8112 19.2799 7.02734 20C6.35286 19.599 5.76497 19.321 5.26367 19.166C4.77148 19.0111 4.2474 18.9336 3.69141 18.9336C2.83464 18.9336 2.07357 19.1934 1.4082 19.7129C1.16211 19.9043 0.984375 20 0.875 20C0.77474 20 0.674479 19.9499 0.574219 19.8496C0.473958 19.7493 0.423828 19.6491 0.423828 19.5488C0.423828 19.4395 0.519531 19.2936 0.710938 19.1113C0.820312 19.002 1.00716 18.7923 1.27148 18.4824L2.51562 16.9375L4.2793 14.5996L1.28516 12.9863V7.88672C2.22396 7.59505 2.95768 7.27148 3.48633 6.91602C4.02409 6.55143 4.53906 6.05469 5.03125 5.42578C6.19792 5.91797 7.13672 6.26432 7.84766 6.46484C8.35807 6.60156 8.8457 6.66992 9.31055 6.66992C9.82096 6.66992 10.2174 6.56055 10.5 6.3418C10.7826 6.11393 10.9238 5.87695 10.9238 5.63086C10.9238 5.4668 10.8327 5.30273 10.6504 5.13867C10.2949 4.81966 10.1172 4.50977 10.1172 4.20898C10.1172 3.92643 10.1947 3.70312 10.3496 3.53906C10.5046 3.36589 10.6777 3.2793 10.8691 3.2793C11.1243 3.2793 11.3522 3.39779 11.5527 3.63477C11.7624 3.86263 11.8672 4.16797 11.8672 4.55078C11.8672 4.94271 11.7852 5.32552 11.6211 5.69922C11.457 6.07292 11.1426 6.55599 10.6777 7.14844L8.05273 10.498ZM4.04688 11.4414L5.91992 12.4121L8.90039 8.44727C8.28971 8.62044 7.76107 8.70703 7.31445 8.70703C6.19336 8.70703 5.10417 8.33333 4.04688 7.58594V11.4414ZM6.39844 12.6855L3.10352 17.1016C3.50456 16.9648 3.87826 16.8646 4.22461 16.8008C4.57096 16.737 4.88542 16.7051 5.16797 16.7051C6.21615 16.7051 7.30534 17.0514 8.43555 17.7441V13.7793L6.39844 12.6855ZM20.0977 1.06445L19.6738 3.34766L17.1719 2.75977V6.05469H19.291V7.58594H17.1719V16.7598L18.7168 17.9219L19.7832 17.0605L20.0977 17.4434L16.9258 20C15.8047 18.9792 14.6517 18.2865 13.4668 17.9219L13.3848 17.5938C13.7129 17.3841 13.9408 17.1654 14.0684 16.9375C14.2871 16.5638 14.3965 16.1126 14.3965 15.584V7.58594H13.1113V6.05469H14.3965V2.75977C15.7637 1.83008 16.7936 1.04622 17.4863 0.408203L20.0977 1.06445Z" fill="#F2F2F2"/>
</svg>
