<svg width="83" height="51" viewBox="0 0 83 51" fill="none" xmlns="http://www.w3.org/2000/svg">
<path d="M0.828125 1.53516L24.6992 17.9531C25.0742 17.0859 25.4844 16.4297 25.9297 15.9844C26.3984 15.5391 27.1016 15.1172 28.0391 14.7188V16.1602C27.5703 16.793 27.2656 17.3672 27.125 17.8828C26.9844 18.3984 26.9141 19.4531 26.9141 21.0469V44.707C23.9375 45.832 21.7227 46.8164 20.2695 47.6602C18.8164 48.4805 17.2461 49.5938 15.5586 51C12.793 49.1953 10.3438 47.8828 8.21094 47.0625C6.07812 46.2422 3.78125 45.6797 1.32031 45.375V44.707C2.16406 43.9805 2.70312 43.2539 2.9375 42.5273C3.19531 41.7773 3.32422 40.2422 3.32422 37.9219V19.5C6.53516 18.6094 8.80859 17.6016 10.1445 16.4766L0.828125 10.1133V1.53516ZM19.7422 23.0508L12.5352 18.0586C11.8789 18.5977 11.2109 19.0664 10.5312 19.4648V41.1914L19.7422 45.2695V23.0508ZM51.9805 26.5664L60.1016 30.8203V45.6211C58.1328 45.8086 56.3516 46.2891 54.7578 47.0625C53.1641 47.8359 51.3594 49.1484 49.3438 51C47.6094 49.9688 46.0977 49.2539 44.8086 48.8555C43.543 48.457 42.1953 48.2578 40.7656 48.2578C38.5625 48.2578 36.6055 48.9258 34.8945 50.2617C34.2617 50.7539 33.8047 51 33.5234 51C33.2656 51 33.0078 50.8711 32.75 50.6133C32.4922 50.3555 32.3633 50.0977 32.3633 49.8398C32.3633 49.5586 32.6094 49.1836 33.1016 48.7148C33.3828 48.4336 33.8633 47.8945 34.543 47.0977L37.7422 43.125L42.2773 37.1133L34.5781 32.9648V19.8516C36.9922 19.1016 38.8789 18.2695 40.2383 17.3555C41.6211 16.418 42.9453 15.1406 44.2109 13.5234C47.2109 14.7891 49.625 15.6797 51.4531 16.1953C52.7656 16.5469 54.0195 16.7227 55.2148 16.7227C56.5273 16.7227 57.5469 16.4414 58.2734 15.8789C59 15.293 59.3633 14.6836 59.3633 14.0508C59.3633 13.6289 59.1289 13.207 58.6602 12.7852C57.7461 11.9648 57.2891 11.168 57.2891 10.3945C57.2891 9.66797 57.4883 9.09375 57.8867 8.67188C58.2852 8.22656 58.7305 8.00391 59.2227 8.00391C59.8789 8.00391 60.4648 8.30859 60.9805 8.91797C61.5195 9.50391 61.7891 10.2891 61.7891 11.2734C61.7891 12.2813 61.5781 13.2656 61.1562 14.2266C60.7344 15.1875 59.9258 16.4297 58.7305 17.9531L51.9805 26.5664ZM41.6797 28.9922L46.4961 31.4883L54.1602 21.293C52.5898 21.7383 51.2305 21.9609 50.082 21.9609C47.1992 21.9609 44.3984 21 41.6797 19.0781V28.9922ZM47.7266 32.1914L39.2539 43.5469C40.2852 43.1953 41.2461 42.9375 42.1367 42.7734C43.0273 42.6094 43.8359 42.5273 44.5625 42.5273C47.2578 42.5273 50.0586 43.418 52.9648 45.1992V35.0039L47.7266 32.1914ZM82.9531 2.30859L81.8633 8.17969L75.4297 6.66797V15.1406H80.8789V19.0781H75.4297V42.668L79.4023 45.6562L82.1445 43.4414L82.9531 44.4258L74.7969 51C71.9141 48.375 68.9492 46.5938 65.9023 45.6562L65.6914 44.8125C66.5352 44.2734 67.1211 43.7109 67.4492 43.125C68.0117 42.1641 68.293 41.0039 68.293 39.6445V19.0781H64.9883V15.1406H68.293V6.66797C71.8086 4.27734 74.457 2.26172 76.2383 0.621094L82.9531 2.30859Z" fill="white"/>
</svg>
