<svg style="fill: rgb(240, 240, 240);" viewBox="0 0 512 512" xmlns="http://www.w3.org/2000/svg"><g><path d="m0 346c0 91.203 74.78 166 166 166 90.981 0 165-74.467 165-166 0-5.316-.263-10.572-.757-15.761 5.229.496 10.489.761 15.757.761 91.533 0 166-74.019 166-165 0-91.203-74.78-166-166-166-90.981 0-165 74.467-165 166 0 5.268.265 10.528.761 15.757-5.189-.494-10.445-.757-15.761-.757-91.533 0-166 74.019-166 165zm324.242-46.755c-6.917-23.371-18.88-44.593-34.625-62.403.293-.28.586-.559.86-.866 14.135-15.873 34.372-24.976 55.523-24.976s41.388 9.103 55.522 24.976c5.509 6.186 14.991 6.736 21.178 1.227s6.736-14.991 1.227-21.178c-19.821-22.259-48.224-35.025-77.927-35.025s-58.106 12.766-77.927 35.024c-.075.084-.136.174-.208.259-16.205-12.754-34.854-22.531-55.11-28.526-1.158-7.164-1.755-14.449-1.755-21.757 0-74.991 60.561-136 135-136 74.991 0 136 61.009 136 136 0 74.439-61.009 135-136 135-7.308 0-14.593-.597-21.758-1.755zm-294.242 46.755c0-74.439 61.009-135 136-135 74.439 0 135 60.561 135 135 0 74.991-60.561 136-135 136-74.991 0-136-61.009-136-136z"/><path d="m69.256 367.351c-2.811 3.982-3.511 9.082-1.878 13.674 14.879 41.854 54.512 69.975 98.622 69.975s83.743-28.121 98.622-69.976c1.633-4.593.932-9.692-1.878-13.674-2.811-3.982-7.381-6.35-12.255-6.35h-168.978c-4.874 0-9.444 2.368-12.255 6.351zm37.134 23.649h119.22c-13.897 18.521-35.848 30-59.61 30s-45.712-11.479-59.61-30z"/><path d="m241 316c0-8.271-6.729-15-15-15s-15 6.729-15 15c0 8.284-6.716 15-15 15s-15-6.716-15-15c0-24.813 20.187-45 45-45s45 20.187 45 45c0 8.284-6.716 15-15 15s-15-6.716-15-15z"/><path d="m106 271c24.813 0 45 20.187 45 45 0 8.284-6.716 15-15 15s-15-6.716-15-15c0-8.271-6.729-15-15-15s-15 6.729-15 15c0 8.284-6.716 15-15 15s-15-6.716-15-15c0-24.813 20.187-45 45-45z"/><path d="m361 121c0-8.284 6.716-15 15-15s15 6.716 15 15c0 8.271 6.729 15 15 15s15-6.729 15-15c0-8.284 6.716-15 15-15s15 6.716 15 15c0 24.813-20.187 45-45 45s-45-20.187-45-45z"/><path d="m286 166c-24.813 0-45-20.187-45-45 0-8.284 6.716-15 15-15s15 6.716 15 15c0 8.271 6.729 15 15 15s15-6.729 15-15c0-8.284 6.716-15 15-15s15 6.716 15 15c0 24.813-20.187 45-45 45z"/></g></svg>