<svg width="215" height="91" viewBox="0 0 215 91" fill="none" xmlns="http://www.w3.org/2000/svg">
<path d="M35.4062 86.7656C34.75 83.5781 34.9375 80.3906 35.9688 77.2031C37 73.9219 38.1719 70.6875 39.4844 67.5C40.7969 64.3125 41.9219 61.1719 42.8594 58.0781C43.8906 54.8906 44.0312 51.75 43.2812 48.6562C41.4062 48.375 39.25 48.5625 36.8125 49.2188C34.375 49.7812 31.8438 50.5312 29.2188 51.4688C26.6875 52.4062 24.1094 53.3438 21.4844 54.2812C18.8594 55.2188 16.3281 55.875 13.8906 56.25C11.4531 56.5312 9.20312 56.3906 7.14062 55.8281C5.17188 55.2656 3.48438 53.9531 2.07812 51.8906C0.859375 50.0156 0.34375 47.9062 0.53125 45.5625C0.8125 43.125 1.51562 40.5469 2.64062 37.8281C3.85938 35.0156 5.35938 32.1094 7.14062 29.1094C8.92188 26.1094 10.7031 23.1562 12.4844 20.25C14.3594 17.3438 16.0469 14.5313 17.5469 11.8125C19.1406 9.09375 20.3125 6.5625 21.0625 4.21875C23.2188 3.65625 24.7656 3.65625 25.7031 4.21875C26.7344 4.6875 27.2969 5.53125 27.3906 6.75C27.5781 7.875 27.3906 9.23437 26.8281 10.8281C26.3594 12.4219 25.75 14.0156 25 15.6094C24.25 17.2031 23.5 18.7031 22.75 20.1094C22 21.5156 21.4375 22.5938 21.0625 23.3438C20.5938 24.0938 19.8438 25.4531 18.8125 27.4219C17.7812 29.3906 16.6562 31.4531 15.4375 33.6094C14.3125 35.7656 13.1875 37.8281 12.0625 39.7969C11.0312 41.7656 10.3281 43.125 9.95312 43.875V47.1094C12.2031 47.3906 14.5938 47.3438 17.125 46.9688C19.6562 46.5 22.1406 45.9375 24.5781 45.2812C27.1094 44.5312 29.5469 43.7344 31.8906 42.8906C34.3281 42.0469 36.5312 41.3438 38.5 40.7812C43.0938 39.4688 46.75 37.5 49.4688 34.875C52.2812 32.25 54.5781 29.2031 56.3594 25.7344C58.2344 22.1719 59.8281 18.2812 61.1406 14.0625C62.4531 9.84375 63.9531 5.48438 65.6406 0.984375C67.7969 0.328125 69.1562 0.65625 69.7188 1.96875C70.2812 3.1875 70.375 4.96875 70 7.3125C69.625 9.65625 68.875 12.375 67.75 15.4688C66.7188 18.4688 65.6406 21.375 64.5156 24.1875C63.4844 27 62.5469 29.5312 61.7031 31.7812C60.9531 33.9375 60.625 35.3438 60.7188 36C62.3125 35.4375 63.8594 35.4375 65.3594 36C66.9531 36.4688 68.0781 37.5 68.7344 39.0938C68.1719 40.4062 67.2344 41.2969 65.9219 41.7656C64.7031 42.2344 63.3906 42.6562 61.9844 43.0312C60.5781 43.4062 59.1719 43.875 57.7656 44.4375C56.4531 44.9062 55.375 45.7969 54.5312 47.1094C52.5625 50.2031 50.875 53.4375 49.4688 56.8125C48.0625 60.1875 46.7969 63.6562 45.6719 67.2188C44.5469 70.7812 43.5625 74.3906 42.7188 78.0469C41.875 81.6094 41.0312 85.0781 40.1875 88.4531C39.5312 88.6406 38.5938 88.6875 37.375 88.5938C36.25 88.4062 35.5938 87.7969 35.4062 86.7656ZM83.7812 88.4531C80.9688 86.2969 79.0938 83.25 78.1562 79.3125C77.3125 75.2812 77.2188 70.7812 77.875 65.8125C78.625 60.8438 79.9844 55.5938 81.9531 50.0625C84.0156 44.5312 86.5 39.1875 89.4062 34.0312C92.4062 28.875 95.7344 24.1406 99.3906 19.8281C103.047 15.4219 106.844 11.9062 110.781 9.28125C114.812 6.5625 118.844 4.96875 122.875 4.5C127 3.9375 130.938 4.92188 134.688 7.45312C137.5 9.32813 139.234 12.1406 139.891 15.8906C140.547 19.6406 140.406 23.9531 139.469 28.8281C138.531 33.6094 136.891 38.7188 134.547 44.1562C132.203 49.5 129.438 54.75 126.25 59.9062C123.062 65.0625 119.594 69.8438 115.844 74.25C112.094 78.6562 108.297 82.2656 104.453 85.0781C100.703 87.8906 97.0469 89.6719 93.4844 90.4219C89.9219 91.2656 86.6875 90.6094 83.7812 88.4531ZM85.3281 83.6719C86.7344 85.8281 88.4688 86.7656 90.5312 86.4844C92.6875 86.2031 94.9844 85.125 97.4219 83.25C99.9531 81.2812 102.531 78.7031 105.156 75.5156C107.875 72.2344 110.5 68.6719 113.031 64.8281C115.656 60.8906 118.141 56.8125 120.484 52.5938C122.828 48.375 124.891 44.3906 126.672 40.6406C128.453 36.7969 129.906 33.375 131.031 30.375C132.156 27.2812 132.812 24.9375 133 23.3438C133.469 18.0938 132.953 14.625 131.453 12.9375C129.953 11.1563 127.797 10.7344 124.984 11.6719C122.266 12.5156 119.078 14.4844 115.422 17.5781C111.859 20.6719 108.297 24.4219 104.734 28.8281C101.172 33.1406 97.75 37.875 94.4688 43.0312C91.2812 48.1875 88.6562 53.2969 86.5938 58.3594C84.625 63.3281 83.4062 68.0625 82.9375 72.5625C82.5625 77.0625 83.3594 80.7656 85.3281 83.6719ZM179.969 86.7656C179.312 83.5781 179.5 80.3906 180.531 77.2031C181.562 73.9219 182.734 70.6875 184.047 67.5C185.359 64.3125 186.484 61.1719 187.422 58.0781C188.453 54.8906 188.594 51.75 187.844 48.6562C185.969 48.375 183.812 48.5625 181.375 49.2188C178.938 49.7812 176.406 50.5312 173.781 51.4688C171.25 52.4062 168.672 53.3438 166.047 54.2812C163.422 55.2188 160.891 55.875 158.453 56.25C156.016 56.5312 153.766 56.3906 151.703 55.8281C149.734 55.2656 148.047 53.9531 146.641 51.8906C145.422 50.0156 144.906 47.9062 145.094 45.5625C145.375 43.125 146.078 40.5469 147.203 37.8281C148.422 35.0156 149.922 32.1094 151.703 29.1094C153.484 26.1094 155.266 23.1562 157.047 20.25C158.922 17.3438 160.609 14.5313 162.109 11.8125C163.703 9.09375 164.875 6.5625 165.625 4.21875C167.781 3.65625 169.328 3.65625 170.266 4.21875C171.297 4.6875 171.859 5.53125 171.953 6.75C172.141 7.875 171.953 9.23437 171.391 10.8281C170.922 12.4219 170.312 14.0156 169.562 15.6094C168.812 17.2031 168.062 18.7031 167.312 20.1094C166.562 21.5156 166 22.5938 165.625 23.3438C165.156 24.0938 164.406 25.4531 163.375 27.4219C162.344 29.3906 161.219 31.4531 160 33.6094C158.875 35.7656 157.75 37.8281 156.625 39.7969C155.594 41.7656 154.891 43.125 154.516 43.875V47.1094C156.766 47.3906 159.156 47.3438 161.688 46.9688C164.219 46.5 166.703 45.9375 169.141 45.2812C171.672 44.5312 174.109 43.7344 176.453 42.8906C178.891 42.0469 181.094 41.3438 183.062 40.7812C187.656 39.4688 191.312 37.5 194.031 34.875C196.844 32.25 199.141 29.2031 200.922 25.7344C202.797 22.1719 204.391 18.2812 205.703 14.0625C207.016 9.84375 208.516 5.48438 210.203 0.984375C212.359 0.328125 213.719 0.65625 214.281 1.96875C214.844 3.1875 214.938 4.96875 214.562 7.3125C214.188 9.65625 213.438 12.375 212.312 15.4688C211.281 18.4688 210.203 21.375 209.078 24.1875C208.047 27 207.109 29.5312 206.266 31.7812C205.516 33.9375 205.188 35.3438 205.281 36C206.875 35.4375 208.422 35.4375 209.922 36C211.516 36.4688 212.641 37.5 213.297 39.0938C212.734 40.4062 211.797 41.2969 210.484 41.7656C209.266 42.2344 207.953 42.6562 206.547 43.0312C205.141 43.4062 203.734 43.875 202.328 44.4375C201.016 44.9062 199.938 45.7969 199.094 47.1094C197.125 50.2031 195.438 53.4375 194.031 56.8125C192.625 60.1875 191.359 63.6562 190.234 67.2188C189.109 70.7812 188.125 74.3906 187.281 78.0469C186.438 81.6094 185.594 85.0781 184.75 88.4531C184.094 88.6406 183.156 88.6875 181.938 88.5938C180.812 88.4062 180.156 87.7969 179.969 86.7656Z" fill="#F0F0F0"/>
</svg>
