<svg width="560" height="1024" viewBox="0 140 560 750" fill="none" xmlns="http://www.w3.org/2000/svg">
<g clip-path="url(#clip0)">
<rect width="1440" height="1024" transform="translate(-880)" fill="black"/>
<path d="M56.1668 284.086C80.2489 365.384 119.04 443.93 179.295 503.587C239.55 563.232 323.089 602.289 407.726 597.463C387.093 673.559 366.45 749.666 345.807 825.766C345.13 828.279 344.453 830.979 345.319 833.431C346.439 836.588 349.733 838.348 352.795 839.723C363.976 844.761 375.679 848.648 387.659 851.299C392.374 874.692 371.608 898.533 378.829 921.273C386.295 944.764 416.722 949.796 441.348 950.687C441.636 963.567 441.935 976.438 442.224 989.307C442.324 993.544 442.49 998.024 444.808 1001.57C447.46 1005.65 452.351 1007.58 456.966 1009.1C497.998 1022.74 543.034 1024.06 584.798 1012.83C584.798 798.285 557.976 87.014 562.024 17.6739C373.305 7.57963 13.2959 17.6739 13.2959 17.6739C13.2959 17.6739 33.9371 209.066 56.1668 284.086" fill="#EA3826"/>
<path d="M408.539 565.006C305.423 483.143 244.792 358.852 205.236 233.279C187.962 178.428 173.937 121.322 178.214 63.9837C179.496 46.9414 182.624 29.5124 189.841 14.1942C144.185 14.791 103.524 15.5536 72.6451 16.2167C63.5492 39.3487 63.2398 67.1556 65.8481 92.509C74.6565 178.439 105.989 261.97 155.867 332.515C180.193 366.92 208.707 398.12 237.133 429.221C255.49 449.291 273.825 469.362 292.172 489.432C330.202 531.021 369.415 573.516 419.779 598.792C427.758 602.793 437.628 606.263 445.187 601.511C436.843 586.281 422.144 575.804 408.539 565.006Z" fill="#CE2C24"/>
<path d="M483.949 595.98C431.675 479.533 402.569 353.819 385.207 227.364C376.095 161.078 370.388 91.973 391.886 28.6183C393.634 23.465 395.624 18.2896 398.101 13.4349C363.831 13.1473 328.742 13.1252 294.361 13.269C294.704 14.2532 295.024 15.2374 295.334 16.2327C300.476 32.909 300.664 50.647 301.084 68.0975C305.453 247.468 342.001 432.025 446.117 578.165C455.097 590.771 470.966 604.418 483.949 595.98" fill="#CE2C24"/>
<path d="M529.555 556.187C519.409 511.282 512.07 465.758 506.898 420.012C497.846 340.016 495.392 259.423 495.646 178.963C495.779 138.081 496.619 97.1876 497.669 56.3165C498.045 41.6612 499.78 27.5033 498.686 15.18C484.583 14.7711 470.005 14.4395 455.062 14.1632C455.925 19.1809 456.179 24.4308 456.289 29.4043C457.162 68.5402 458.025 107.676 458.898 146.812C461.694 271.714 464.567 397.488 490.54 519.704C494.375 537.752 498.84 556.043 508.478 571.793C511.23 576.269 515.187 580.944 520.426 580.944C530.616 580.944 531.787 566.112 529.555 556.187" fill="#CE2C24"/>
<path d="M311.619 553.558C209.858 504.524 124.698 422.401 70.3682 323.461C94.6835 390.118 129.994 453.006 180.237 502.743C240.5 562.397 324.029 601.448 408.674 596.62C408.496 597.277 408.327 597.933 408.149 598.589C415.142 596.986 422.341 594.436 425.874 588.353C418.657 582.335 408.496 581.904 399.15 580.985C368.564 577.995 339.309 566.906 311.619 553.558" fill="#CE2C24"/>
<path d="M315.49 178.689C323.183 181.24 326.185 190.299 328.204 198.152C348.129 276.085 373.507 352.632 404.078 427.04C427.216 483.33 454.463 539.992 499.626 580.796C497.748 579.089 473.414 594.213 463.863 587.253C453.74 579.872 445.173 561.062 438.404 550.577C421.1 523.732 405.875 495.572 392.549 466.548C366.015 408.731 347.085 347.62 333.587 285.515C325.914 250.215 319.999 214.532 315.49 178.689" fill="#BF2622"/>
<path d="M510.019 531.713C480.662 441.219 462.982 346.943 457.518 251.958C456.018 225.976 455.461 199.751 459.749 174.094C464.209 214.46 469.45 254.735 475.471 294.899C487.028 372.032 505.559 447.798 531.712 521.272C539.751 543.868 548.662 554.025 557.207 569.545C558.181 571.299 566.716 568.896 566.361 570.863C565.905 573.346 563.492 574.948 561.171 575.952C528.276 590.245 517.612 555.15 510.019 531.713" fill="#BF2622"/>
<path d="M53.2598 193.055C65.1812 228.778 77.7437 264.284 90.9265 299.552C98.5364 319.9 106.394 340.258 117.22 359.086C133.556 387.53 156.241 411.766 179.349 435.04C188.8 444.552 199.687 454.55 213.087 455.005C219.094 455.212 226.487 451.469 225.753 445.503C225.391 442.588 223.158 440.313 221.038 438.276C213.211 430.739 205.374 423.191 197.785 415.395C129.875 345.624 82.7997 255.836 64.0335 160.289C63.103 155.502 62.007 150.302 58.2951 147.127C38.6398 130.346 51.5435 187.937 53.2598 193.055" fill="#FC322D"/>
<path d="M218.974 81.4923C217.657 94.7336 219.333 108.084 221.065 121.282C229.526 185.909 239.392 250.635 258.361 312.997C277.33 375.349 305.805 435.599 348.186 485.112C350.832 488.194 353.772 491.384 357.714 492.332C361.656 493.279 366.654 490.731 366.632 486.68C366.622 484.448 365.173 482.521 363.812 480.767C317.076 420.343 286.161 347.788 274.945 272.228C266.288 213.873 269.217 154.526 268.444 95.5394C268.324 86.4578 268.041 77.0277 263.979 68.8935C249.932 40.7339 221.555 55.6958 218.974 81.4923Z" fill="#FC322D"/>
<path d="M414.584 122.082C406.18 134.235 404.614 149.781 404.457 164.564C404.29 180.914 405.522 197.233 406.744 213.541C408.487 236.666 410.22 259.782 411.964 282.907C414.991 323.26 418.05 363.758 426.643 403.297C430.641 421.682 436.352 440.726 449.851 453.829C451.877 437.291 447.826 420.701 444.579 404.351C437.104 366.557 433.899 327.927 435.078 289.422C436.436 244.664 443.671 200.156 443.326 155.377C443.253 147.275 442.867 138.849 439.035 131.708C436.279 126.561 420.264 113.876 414.584 122.082" fill="#FC322D"/>
<path d="M477.047 600.466C479.71 641.436 472.205 682.318 464.72 722.687C452.316 789.761 439.892 856.838 425.513 923.515C423.76 931.633 421.901 939.928 417.553 946.996C417.321 947.371 417.079 947.746 416.827 948.111C424.98 949.733 433.492 950.445 441.413 950.736C441.49 954.055 441.558 957.363 441.635 960.682C455.705 903.839 466.473 846.185 473.851 788.086C477.434 759.87 480.213 731.556 482.992 703.253C485.946 673.177 488.899 643.111 491.852 613.035C492.385 607.641 492.704 601.541 489.093 597.484C485.481 593.436 476.698 595.044 477.047 600.466" fill="#CE2C24"/>
<path d="M574.48 547.946C572.614 548.848 570.841 550.006 569.202 551.144C556.914 559.753 544.626 568.351 532.338 576.949C526.404 581.1 520.327 585.404 516.402 591.492C512.251 597.918 510.888 605.707 509.812 613.29C504.944 647.182 503.519 681.576 505.559 715.764C511.411 813.766 511.749 912.092 506.563 1010.13C506.399 1013.13 506.071 1016.36 505.303 1019.36C531.928 1021.96 559.015 1019.82 584.851 1012.89C584.851 920.106 579.84 734.427 574.48 547.946Z" fill="#CE2C24"/>
<path d="M387.996 853.018C409.966 786.271 428.963 718.542 444.933 650.106C448.508 634.759 451.923 618.572 447.546 603.423C441.981 604.357 439.934 611.148 438.981 616.704C425.369 695.734 398.74 772.508 360.528 843.01C369.357 846.5 378.45 849.292 387.713 851.349C387.827 851.905 387.911 852.462 387.996 853.018" fill="#CE2C24"/>
<path d="M489.792 597.504C487.545 594.985 483.302 594.655 480.493 596.07C481.209 596.428 481.858 596.903 482.391 597.504C486.005 601.553 485.685 607.656 485.152 613.052C482.207 643.122 479.253 673.191 476.288 703.261C473.518 731.568 470.728 759.884 467.153 788.104C460.226 842.731 450.277 896.974 437.413 950.517C439.001 950.61 440.571 950.695 442.111 950.752C442.188 954.06 442.266 957.378 442.334 960.687C456.419 903.855 467.192 846.19 474.554 788.104C478.139 759.884 480.919 731.568 483.699 703.261C486.654 673.191 489.608 643.122 492.563 613.052C493.086 607.656 493.406 601.553 489.792 597.504Z" fill="#BF2622"/>
<path d="M575.183 547.955C573.337 548.857 571.553 550.016 569.923 551.154C569.246 551.626 568.58 552.087 567.913 552.559C573.224 737.489 578.166 920.876 578.166 1012.9C560.644 1017.6 542.558 1020.09 524.421 1020.4C545.029 1020.72 565.668 1018.24 585.569 1012.9C585.569 920.107 580.545 734.434 575.183 547.955" fill="#BF2622"/>
<path d="M448.272 603.425C445.346 603.915 443.412 606.029 442.071 608.719C444.44 622.309 441.411 636.531 438.24 650.111C422.536 717.475 403.869 784.149 382.343 849.88C384.362 850.4 386.401 850.9 388.439 851.353C388.553 851.909 388.638 852.466 388.722 853.023C410.683 786.273 429.69 718.551 445.648 650.111C449.225 634.757 452.641 618.581 448.272 603.425Z" fill="#BF2622"/>
<path d="M402.503 649.413C393.045 687.986 383.662 726.783 368.411 763.463C363.134 776.145 357.041 789.728 360.2 803.094C364.99 803.151 367.549 797.611 368.936 793.027C382.696 747.499 399.803 702.974 420.05 659.93C429.49 639.88 408.324 625.679 402.503 649.413" fill="#FC322D"/>
<path d="M385.498 902.379C388.771 883.387 397.399 865.82 404.766 848.019C414.816 823.712 422.661 798.564 430.486 773.464C443.294 732.417 452.981 632.782 461.007 637.019C469.968 638.737 455.834 714.628 447.379 746.704C439.123 778.064 434.332 810.179 428.749 842.083C425.915 858.336 422.89 874.569 419.091 890.634C417.03 899.36 414.53 925.541 404.948 929.132C389.783 934.821 383.79 912.334 385.498 902.379" fill="#FC322D"/>
<path d="M481.75 819.07C479.194 838.206 473.227 856.699 468.795 875.488C462.089 903.861 458.881 933.06 459.261 962.212C459.426 975.288 460.961 989.78 470.661 998.545C474.85 1002.34 481.119 1004.67 486.182 1002.17C492.927 998.854 493.617 989.631 493.102 982.131C491.878 964.275 489.205 946.54 488.087 928.683C484.579 873.447 495.794 818.399 497.894 763.098C498.555 745.75 485.016 722.686 483.85 752.805C482.994 774.897 484.686 797.095 481.75 819.07" fill="#FC322D"/>
<path d="M421.662 628.383C428.847 630.343 435.543 634.701 439.411 641.06C440.064 642.141 440.789 643.387 442.024 643.672C444.31 644.213 445.678 641.274 446.3 639.008C448.76 630.047 454.374 621.586 462.753 617.595C471.143 613.615 482.37 615.156 488.054 622.504C488.575 623.188 489.126 623.964 489.953 624.199C491.433 624.617 492.709 623.147 493.637 621.902C502.486 610.073 518.184 605.49 532.932 604.643C547.69 603.806 562.571 605.929 577.238 604.123C577.789 591.855 577.993 579.576 577.86 567.298C577.83 564.389 577.258 560.746 574.482 559.909C573.563 559.633 572.583 559.746 571.624 559.868C548.415 562.95 526.634 572.422 504.619 580.383C478.777 589.742 452.22 597.131 425.255 602.48C419.886 603.551 414.487 604.531 409.231 606.072C398.096 609.318 398.963 618.524 399.657 628.046C407.088 627.097 414.303 626.383 421.662 628.383" fill="#AA2121"/>
<path d="M417.785 621.91C459.001 611.922 499.349 598.758 539.48 585.161C550.689 581.366 561.898 577.53 572.807 572.98C581.379 569.402 590.21 564.977 595.018 557.191C599.826 549.394 598.513 537.379 590.137 533.418C581.224 529.21 571.225 535.869 563.273 541.608C537.102 560.489 506.743 572.815 475.649 581.583C459.88 586.04 443.853 589.597 427.743 592.761C416.699 594.933 392.875 594.767 386.051 605.304C374.004 623.916 408.024 624.268 417.785 621.91" fill="#7C3633"/>
<path d="M22.4375 88.5118C23.1654 90.7396 24.158 93.1548 26.2754 94.1805C29.1649 95.5921 32.5175 93.7173 35.2747 92.052C56.3722 79.237 82.6091 75.1895 106.585 81.0676C122.94 85.071 138.226 93.4526 154.956 95.3495C174.366 97.5441 193.501 90.8278 212.459 86.1628C237.163 80.0861 262.694 77.3842 288.125 78.1783C298.713 78.5091 309.444 79.4685 319.391 83.13C327.056 85.9533 334.136 90.3316 342.066 92.3057C358.708 96.4413 375.791 89.4273 392.091 84.1116C420.975 74.6933 453.553 70.6458 481.058 83.5601C487.08 86.3834 492.771 89.9897 499.09 92.052C508.916 95.2834 519.559 94.5886 529.881 93.8717C540.745 93.0997 551.608 92.3388 562.46 91.5778C562.526 77.5055 562.592 63.4332 562.658 49.3609C562.669 47.6074 562.636 45.7105 561.544 44.332C560.221 42.6446 557.839 42.3359 555.71 42.1484C414.777 30.0943 273.535 18.0292 132.105 20.1246C108.548 20.4775 84.9251 21.2274 61.5997 24.6462C24.8417 30.0391 10.8058 53.0444 22.4375 88.5118" fill="#AA2121"/>
<path d="M585.573 64.9407H-2V8.54358e-05H585.573V64.9407Z" fill="#7C3633"/>
<path d="M-2 64.9359H585.567V49.7795H-2V64.9359Z" fill="#5B2727"/>
<path d="M152.219 137.661C165.641 171.2 182.186 203.485 201.552 233.966C202.957 192.455 182.593 152.843 181.649 111.32C181.467 103.477 182.497 94.5828 188.72 89.8083C189.911 88.8856 191.316 88.1131 192.035 86.7827C193.408 84.2398 191.434 80.9246 188.763 79.7873C186.091 78.6607 183.065 79.0469 180.179 79.3688C167.476 80.7851 154.579 80.3452 141.983 78.1243C135.202 76.9333 115.31 66.8156 118.368 79.7765C120.095 87.0938 133.7 97.5977 137.831 105.044C143.603 115.44 147.82 126.642 152.219 137.661" fill="#AA2121"/>
<path d="M360.428 152.185C365.636 179.815 368.08 208.832 382.071 233.207C385.913 219.077 383.768 204.115 381.975 189.591C378.667 162.686 376.682 135.612 376.031 108.505C375.817 99.3267 376.757 88.3132 384.825 83.9163C388.442 81.942 393.971 80.1704 393.127 76.1364C378.048 76.638 362.968 77.1503 347.889 77.6519C344.687 77.7586 329.277 76.2858 327.452 78.9965C324.571 83.2546 331.731 86.9471 334.709 90.3408C349.703 107.384 356.256 130.35 360.428 152.185" fill="#AA2121"/>
</g>
<defs>
<clipPath id="clip0">
<rect width="1440" height="1024" fill="white" transform="translate(-880)"/>
</clipPath>
</defs>
</svg>
